# xmcd
#
# Track frame offsets: 
#        150
#        11898
#        22643
#        35596
#        47095
#        59321
#        75914
#        87362
#        99094
#        111528
#        129240
#        142974
#        155408
#        165839
#        178118
#        192450
#        205638
#        216955
#        228844
#        248558
#        259275
#        275010
#
# Disc length: 3825 seconds
#
# Revision: 0
# Processed by: cddbd v1.4PL0 Copyright (c) Steve Scherf et al.
# Submitted via: ExactAudioCopy v0.90b4
#
DISCID=1e0eef16
DTITLE=Various Artist - Blues soul masters - Disc 1
DYEAR=1900
DGENRE=
TTITLE0=Soul Man (Sam and Dave)
TTITLE1=Respect (Aretha Franklin)
TTITLE2=Green Onions (Booker T and The MG's 
TTITLE3=I'd Rather Go Blind (Etta James)
TTITLE4=I'm In The Mood (John Lee Hooker) 
TTITLE5=Take Me To The River (Al Green)
TTITLE6=Take A Little Piece of My Heart (Erma Franklin)
TTITLE7=In The Midnight Hour (Wilson Pickett)
TTITLE8=Clean Up Woman (Betty Wright)
TTITLE9=Mannish Boy (Muddy Waters)
TTITLE10=Knock On Wood (Eddie Floyd)
TTITLE11=I'm A Road Runner (Jr. Walker and The All Stars)
TTITLE12=Sweet Soul Music (Arthur Conley)
TTITLE13=Everybody Needs Someone To Love (Solomon Burke)
TTITLE14=5-10-15 Hours (Ruth Brown) 
TTITLE15=Memphis Soul Stew (King Curtis)
TTITLE16=Walking The Dog (Rufus Thomas)
TTITLE17=Crying In The Chapel (Mavis Staples)
TTITLE18=Stormy Monday (Little Milton)
TTITLE19=I Put A Spell On You (Nina Simone)
TTITLE20=Stay With Me (Lorraine Ellison)
TTITLE21=Sittin' On The Dock Of The Bay - Otis Redding 
EXTD=
EXTT0=
EXTT1=
EXTT2=
EXTT3=
EXTT4=
EXTT5=
EXTT6=
EXTT7=
EXTT8=
EXTT9=
EXTT10=
EXTT11=
EXTT12=
EXTT13=
EXTT14=
EXTT15=
EXTT16=
EXTT17=
EXTT18=
EXTT19=
EXTT20=
EXTT21=
PLAYORDER=
